<?xml version="1.0" encoding="UTF-8" standalone="no"?>
<!-- Uploaded to: SVG Repo, www.svgrepo.com, Generator: SVG Repo Mixer Tools -->

<svg
   width="800px"
   height="800px"
   viewBox="0 0 32 32"
   fill="none"
   version="1.1"
   id="svg5"
   sodipodi:docname="csharp-svgrepo-com.svg"
   inkscape:version="1.3.2 (091e20e, 2023-11-25, custom)"
   xmlns:inkscape="http://www.inkscape.org/namespaces/inkscape"
   xmlns:sodipodi="http://sodipodi.sourceforge.net/DTD/sodipodi-0.dtd"
   xmlns="http://www.w3.org/2000/svg"
   xmlns:svg="http://www.w3.org/2000/svg">
  <defs
     id="defs5" />
  <sodipodi:namedview
     id="namedview5"
     pagecolor="#505050"
     bordercolor="#ffffff"
     borderopacity="1"
     inkscape:showpageshadow="0"
     inkscape:pageopacity="0"
     inkscape:pagecheckerboard="1"
     inkscape:deskcolor="#d1d1d1"
     inkscape:zoom="1.33125"
     inkscape:cx="400"
     inkscape:cy="400"
     inkscape:window-width="2560"
     inkscape:window-height="1346"
     inkscape:window-x="-11"
     inkscape:window-y="-11"
     inkscape:window-maximized="1"
     inkscape:current-layer="svg5" />
  <path
     id="path1"
     style="fill:#ffffff"
     d="M 16 2 C 15.623275 2 15.246531 2.0855614 14.960781 2.2566406 L 5.0392187 8.1952344 C 4.4676111 8.5373128 4 9.3771212 4 10.061328 L 4 21.938594 C 4 22.28069 4.1169233 22.6618 4.3053125 23 L 9.1421094 20.104844 C 8.4176744 18.90393 8 17.499764 8 16 C 8 11.588812 11.606128 8 16.038516 8 C 18.84486 8 21.465526 9.47477 22.917422 11.859453 L 27.694688 8.9999219 C 27.506388 8.6616631 27.246481 8.3663136 26.960781 8.1952344 L 17.039219 2.2566406 C 16.753469 2.0855614 16.376725 2 16 2 z M 22.917422 11.859453 C 22.917912 11.860258 22.918495 11.860992 22.918984 11.861797 L 19.476484 13.926484 C 19.475373 13.924665 19.474083 13.922989 19.472969 13.921172 C 18.745006 12.733881 17.437769 12 16.038516 12 C 13.822222 12 12.019297 13.794406 12.019297 16 C 12.019297 16.746428 12.229552 17.443251 12.588672 18.041875 L 16 16 L 16.000156 16.000078 L 12.58875 18.042031 C 13.290798 19.212178 14.572333 20 16.038516 20 C 17.43621 20 18.742106 19.2681 19.470703 18.083203 L 22.920469 20.135938 C 21.469172 22.523429 18.846707 24 16.038516 24 C 13.113163 24 10.548521 22.436198 9.1421875 20.105 L 4.305625 23 C 4.4939442 23.3382 4.7538021 23.633688 5.0395313 23.804688 L 14.961094 29.743281 C 15.53259 30.085481 16.468035 30.085481 17.039531 29.743281 L 26.961094 23.804688 C 27.24689 23.633588 27.5067 23.3382 27.695 23 L 27.694766 22.999844 C 27.883033 22.661667 28 22.280681 28 21.938516 L 28 10.061328 C 28 9.71916 27.883084 9.3381788 27.694688 9 L 22.917422 11.859453 z M 22.000078 13 L 22.999922 13 L 22.999922 13.997422 L 25.000078 13.997422 L 25.000078 13 L 25.999922 13 L 25.999922 13.997422 L 27 13.997422 L 27 15 L 25.999922 15 L 25.999922 17 L 27 17 L 27 18 L 25.999922 18 L 25.999922 19 L 25.000078 19 L 25.000078 18 L 23 18 L 22.999922 19 L 22.000078 19 L 22.000078 18 L 21 18 L 21 16.994766 L 22.000078 16.994766 L 22.000078 15 L 21 15 L 21 13.997422 L 22.000078 13.997422 L 22.000078 13 z M 22.999922 15 L 22.999922 16.994766 L 25.000078 16.994766 L 25.000078 15 L 22.999922 15 z " />
</svg>
