<?xml version="1.0" encoding="UTF-8" standalone="no"?>
<!-- Created with Inkscape (http://www.inkscape.org/) -->

<svg
   version="1.0"
   width="390"
   height="390"
   id="svg3"
   sodipodi:docname="inkscape.svg"
   inkscape:version="1.3.2 (091e20e, 2023-11-25, custom)"
   xmlns:inkscape="http://www.inkscape.org/namespaces/inkscape"
   xmlns:sodipodi="http://sodipodi.sourceforge.net/DTD/sodipodi-0.dtd"
   xmlns="http://www.w3.org/2000/svg"
   xmlns:svg="http://www.w3.org/2000/svg">
  <defs
     id="defs3" />
  <sodipodi:namedview
     id="namedview3"
     pagecolor="#505050"
     bordercolor="#ffffff"
     borderopacity="1"
     inkscape:showpageshadow="0"
     inkscape:pageopacity="0"
     inkscape:pagecheckerboard="1"
     inkscape:deskcolor="#d1d1d1"
     inkscape:zoom="2.1871795"
     inkscape:cx="195"
     inkscape:cy="195"
     inkscape:window-width="1920"
     inkscape:window-height="1137"
     inkscape:window-x="2552"
     inkscape:window-y="228"
     inkscape:window-maximized="1"
     inkscape:current-layer="inkscape-logo" />
  <g
     id="inkscape-logo">
    <path
       id="path1"
       d="M 193.61914 15.5 C 182.36665 15.4775 171.22538 19.565086 163.15039 27.830078 L 28.810547 165.30078 C -16.579408 221.51073 59.700423 214.97017 92.400391 231.16016 C 104.13038 243.15014 47.439934 252.00001 59.169922 264 C 70.89991 275.98999 130.09962 287.09986 141.84961 299.08984 C 153.5796 311.07983 117.84032 323.79907 129.57031 335.78906 C 141.3003 347.77905 168.42977 336.41964 173.50977 364.09961 C 177.12976 383.87959 222.39908 372.60037 244.53906 356.40039 C 256.26905 344.4004 222.10009 345.52905 233.83008 333.53906 C 263.00005 303.70909 290.16063 322.70052 300.14062 292.81055 C 305.07062 278.04056 257.19923 270.04077 268.94922 258.05078 C 302.69918 238.3408 419.34994 225.5101 364 170.16016 L 224.75 27.830078 C 216.23501 19.655086 204.87163 15.5225 193.61914 15.5 z M 194.82617 28.582031 C 202.8599 28.624531 210.86588 31.630715 216.63086 37.470703 L 269.7793 91.449219 C 274.81928 96.599209 274.74967 106.57922 271.92969 109.44922 L 245.53906 88.339844 L 240.34961 119.59961 L 218.30078 107.96094 L 182.99023 130.26953 L 171.30078 83.240234 L 152.33008 116.06055 L 123.33008 116.06055 C 111.5101 116.06055 110.1194 101.06029 120.85938 90.320312 C 139.61934 70.070354 161.14963 49.430679 172.84961 37.470703 C 178.72959 31.460715 186.79244 28.539531 194.82617 28.582031 z M 131 238.59961 C 134.59 240.82961 188.89018 251.86055 202.16016 254.06055 C 206.76014 255.03055 203.50014 259.77072 197.16016 262.9707 C 182.86018 266.7707 113.50004 238.59961 131 238.59961 z M 342.12695 276.38672 C 331.20196 276.76297 320.43093 282.34556 317.46094 292.81055 C 317.46094 299.63054 367.71094 304.09921 367.71094 291.19922 C 364.13094 280.83923 353.05194 276.01047 342.12695 276.38672 z M 109.67383 305.96875 C 94.446175 306.77772 78.105872 317.79642 91.099609 329.05078 C 102.9996 339.34077 121.38063 326.49085 126.89062 312.13086 C 123.2875 307.34336 116.59549 305.60104 109.67383 305.96875 z M 311.16016 306.82031 C 295.82017 320.5803 312.88002 334.54038 328 325.65039 C 331.37 322.23039 327.91014 310.24031 311.16016 306.82031 z "
       style="fill:#ffffff" />
  </g>
</svg>
